<?xml version="1.0" encoding="UTF-8" standalone="no"?>
<!-- Created with Inkscape (http://www.inkscape.org/) -->

<svg
   xmlns:dc="http://purl.org/dc/elements/1.1/"
   xmlns:cc="http://creativecommons.org/ns#"
   xmlns:rdf="http://www.w3.org/1999/02/22-rdf-syntax-ns#"
   xmlns:svg="http://www.w3.org/2000/svg"
   xmlns="http://www.w3.org/2000/svg"
   xmlns:sodipodi="http://sodipodi.sourceforge.net/DTD/sodipodi-0.dtd"
   xmlns:inkscape="http://www.inkscape.org/namespaces/inkscape"
   width="30"
   height="30"
   viewBox="0 0 7.9374998 7.9375002"
   version="1.1"
   id="svg8"
   inkscape:version="0.92.5 (2060ec1f9f, 2020-04-08)"
   sodipodi:docname="approach.svg">
  <defs
     id="defs2" />
  <sodipodi:namedview
     id="base"
     pagecolor="#ffffff"
     bordercolor="#666666"
     borderopacity="1.0"
     inkscape:pageopacity="0.0"
     inkscape:pageshadow="2"
     inkscape:zoom="16.057809"
     inkscape:cx="3.7022104"
     inkscape:cy="18.307307"
     inkscape:document-units="mm"
     inkscape:current-layer="layer1"
     showgrid="false"
     inkscape:window-width="1920"
     inkscape:window-height="1016"
     inkscape:window-x="0"
     inkscape:window-y="0"
     inkscape:window-maximized="1"
     units="px" />
  <metadata
     id="metadata5">
    <rdf:RDF>
      <cc:Work
         rdf:about="">
        <dc:format>image/svg+xml</dc:format>
        <dc:type
           rdf:resource="http://purl.org/dc/dcmitype/StillImage" />
        <dc:title></dc:title>
      </cc:Work>
    </rdf:RDF>
  </metadata>
  <g
     inkscape:label="Capa 1"
     inkscape:groupmode="layer"
     id="layer1"
     transform="translate(0,-289.06248)">
    <rect
       style="opacity:1;vector-effect:none;fill:#ffff00;fill-opacity:1;fill-rule:evenodd;stroke:none;stroke-width:0.10458983;stroke-linecap:round;stroke-linejoin:round;stroke-miterlimit:4;stroke-dasharray:none;stroke-dashoffset:0;stroke-opacity:1;paint-order:stroke fill markers"
       id="rect830"
       width="7.9375"
       height="7.9375"
       x="1.1914001e-07"
       y="289.06247"
       ry="1.6591942" />
    <path
       style="fill:#000000;stroke-width:0.06650633"
       d="m 3.0483279,296.24334 c -0.025374,-0.0254 -0.046131,-0.50502 -0.046131,-1.0659 v -1.01976 l -0.3159053,-9.1e-4 c -0.1737475,-5.9e-4 -0.3502164,-0.023 -0.3921525,-0.0499 -0.076237,-0.0489 -0.2963382,-0.65648 -0.3865021,-1.06699 -0.069218,-0.31515 0.041273,-0.41176 0.4708931,-0.41176 h 0.3576414 l -0.0018,-0.28266 c -0.00102,-0.16156 -0.086501,-0.48126 -0.1995188,-0.74628 -0.2837024,-0.66524 -0.2501372,-0.96625 0.1077442,-0.96625 0.080218,0 0.1630758,-0.0449 0.1841307,-0.0997 0.029391,-0.0766 0.1559023,-0.0997 0.5447083,-0.0997 0.3755533,0 0.4992803,-0.0215 0.4787713,-0.0832 -0.015213,-0.0457 -0.1149702,-0.0985 -0.2216876,-0.11704 -0.1635529,-0.0286 -0.1940324,-0.0651 -0.1940324,-0.23277 v -0.19886 h 0.5320506 0.5320507 v 0.19951 c 0,0.17648 -0.024954,0.20193 -0.216146,0.22037 -0.1338839,0.013 -0.2161457,0.0572 -0.2161457,0.11637 0,0.0746 0.1098093,0.0956 0.500885,0.0956 0.3838791,0 0.5098273,0.0233 0.5391661,0.0997 0.021057,0.0549 0.1039129,0.0997 0.1841308,0.0997 0.3574799,0 0.3859779,0.2594 0.1059445,0.96434 -0.1097352,0.27625 -0.1995192,0.6197 -0.1995192,0.76323 v 0.26099 l 0.3755275,0.0199 c 0.5258569,0.0279 0.5531952,0.0971 0.3263178,0.82569 -0.1012005,0.32499 -0.2182157,0.61288 -0.2600315,0.63975 -0.041815,0.0269 -0.2174262,0.0493 -0.390245,0.0499 l -0.3142163,9e-4 -0.018318,1.04747 -0.018318,1.04748 -0.9015845,0.0184 c -0.495871,0.0104 -0.9223426,-0.002 -0.9477146,-0.0277 z m 0.8184517,-4.71264 v -0.43229 h -0.565304 c -0.3109169,0 -0.5653036,0.0262 -0.5653036,0.0582 0,0.0321 0.074442,0.22656 0.165427,0.4323 l 0.1654273,0.37405 H 3.466903 3.8667796 Z m 1.1646994,0.0583 c 0.090985,-0.20574 0.1654271,-0.40027 0.1654271,-0.4323 0,-0.032 -0.2543864,-0.0582 -0.565304,-0.0582 H 4.0662988 v 0.43229 0.43228 h 0.3998766 0.3998763 z m -3.5450196,0.2699 c -0.2430524,-0.17024 -0.4129458,-0.57958 -0.4129458,-0.99492 0,-0.4074 0.060951,-0.56866 0.3198477,-0.84624 0.2697646,-0.28923 0.3763332,-0.22711 0.1632667,0.0952 -0.1600921,0.24216 -0.183836,0.34309 -0.183836,0.78146 0,0.40219 0.027885,0.54348 0.1387345,0.70289 0.2766827,0.39791 0.2699421,0.46827 -0.025068,0.26164 z m 4.7080422,0.0739 c 0,-0.0167 0.074028,-0.13939 0.1645065,-0.27271 0.3086069,-0.45477 0.3106015,-1.10441 0.00481,-1.56649 -0.098604,-0.149 -0.1658324,-0.28435 -0.1493956,-0.3008 0.052232,-0.0522 0.4465563,0.31653 0.5477722,0.51226 0.2271743,0.4393 0.053287,1.29552 -0.3155749,1.55389 -0.1462533,0.10238 -0.2521176,0.13345 -0.2521176,0.0739 z m -4.3825287,-0.47085 c -0.1697755,-0.19337 -0.2064085,-0.29194 -0.2064085,-0.55548 0,-0.35209 0.2131021,-0.75391 0.421062,-0.79396 0.107398,-0.0206 0.1058263,-10e-4 -0.018963,0.23132 -0.1723924,0.32164 -0.1735471,0.71952 -0.00307,1.05392 0.1528646,0.29983 0.152728,0.29928 0.073396,0.29928 -0.032788,0 -0.1525003,-0.10574 -0.2660252,-0.23508 z m 3.9834899,0.21589 c 0,-0.0104 0.059855,-0.13659 0.1330135,-0.28009 0.1704881,-0.3344 0.1693334,-0.73228 -0.00307,-1.05392 -0.1247922,-0.23284 -0.126364,-0.25201 -0.018964,-0.23132 0.2079598,0.0401 0.4210618,0.44187 0.4210618,0.79396 0,0.26354 -0.036634,0.36211 -0.2064083,0.55548 -0.1718825,0.19576 -0.3256424,0.2977 -0.3256424,0.21589 z"
       id="path957"
       inkscape:connector-curvature="0"
       sodipodi:nodetypes="cscccssccsscsccscccscsscscsccsccccccccccssccccccsscccccccsccsccccccccccccscccsccccccsscc" />
  </g>
</svg>
