<?xml version="1.0" encoding="UTF-8" standalone="no"?>
<!-- Created with Inkscape (http://www.inkscape.org/) -->

<svg
   xmlns:dc="http://purl.org/dc/elements/1.1/"
   xmlns:cc="http://creativecommons.org/ns#"
   xmlns:rdf="http://www.w3.org/1999/02/22-rdf-syntax-ns#"
   xmlns:svg="http://www.w3.org/2000/svg"
   xmlns="http://www.w3.org/2000/svg"
   xmlns:sodipodi="http://sodipodi.sourceforge.net/DTD/sodipodi-0.dtd"
   xmlns:inkscape="http://www.inkscape.org/namespaces/inkscape"
   width="30"
   height="30"
   viewBox="0 0 7.9374998 7.9375002"
   version="1.1"
   id="svg8"
   inkscape:version="0.92.5 (2060ec1f9f, 2020-04-08)"
   sodipodi:docname="takeoff.svg">
  <defs
     id="defs2" />
  <sodipodi:namedview
     id="base"
     pagecolor="#ffffff"
     bordercolor="#666666"
     borderopacity="1.0"
     inkscape:pageopacity="0.0"
     inkscape:pageshadow="2"
     inkscape:zoom="2.0072262"
     inkscape:cx="22.790583"
     inkscape:cy="-34.549757"
     inkscape:document-units="mm"
     inkscape:current-layer="layer1"
     showgrid="false"
     inkscape:window-width="1920"
     inkscape:window-height="1016"
     inkscape:window-x="0"
     inkscape:window-y="0"
     inkscape:window-maximized="1"
     units="px" />
  <metadata
     id="metadata5">
    <rdf:RDF>
      <cc:Work
         rdf:about="">
        <dc:format>image/svg+xml</dc:format>
        <dc:type
           rdf:resource="http://purl.org/dc/dcmitype/StillImage" />
        <dc:title />
      </cc:Work>
    </rdf:RDF>
  </metadata>
  <g
     inkscape:label="Capa 1"
     inkscape:groupmode="layer"
     id="layer1"
     transform="translate(0,-289.06248)">
    <rect
       style="opacity:1;vector-effect:none;fill:#ffff00;fill-opacity:1;fill-rule:evenodd;stroke:none;stroke-width:0.10458983;stroke-linecap:round;stroke-linejoin:round;stroke-miterlimit:4;stroke-dasharray:none;stroke-dashoffset:0;stroke-opacity:1;paint-order:stroke fill markers"
       id="rect830"
       width="7.9375"
       height="7.9375"
       x="1.1914001e-07"
       y="289.06247"
       ry="1.6591942" />
    <path
       style="fill:#000000;stroke-width:0.01323371"
       d="m 1.0177565,295.38059 c -0.0742232,-0.0265 -0.12738623,-0.0704 -0.16715784,-0.1381 -0.0518194,-0.0881 -0.0518194,-0.20788 0,-0.29603 0.020043,-0.0341 0.0547176,-0.075 0.0770523,-0.0909 0.0964798,-0.0687 -0.0601914,-0.0654 3.15523104,-0.0654 3.2154227,0 3.0587527,-0.003 3.1552306,0.0654 0.1485398,0.10577 0.1527469,0.36073 0.00777,0.4713 -0.098752,0.0753 0.1013963,0.0708 -3.163006,0.0708 -2.4324309,0 -3.0265593,-0.003 -3.0651256,-0.0171 z m 2.2427429,-1.45007 c -0.041898,-0.0176 -0.070894,-0.0665 -0.070885,-0.11935 6.3e-6,-0.0371 0.043421,-0.11749 0.2108364,-0.39056 0.1159558,-0.18913 0.2093903,-0.34531 0.207632,-0.34707 -0.00175,-0.002 -0.503075,0.16338 -1.1140372,0.36697 -0.6109623,0.2036 -1.127513,0.3702 -1.1478907,0.37024 -0.087207,1.5e-4 -0.1548389,-0.0716 -0.1548389,-0.16425 0,-0.0651 0.055509,-0.1234 0.1705191,-0.17904 0.051785,-0.0251 0.094155,-0.0491 0.094155,-0.0534 0,-0.004 -0.1912455,-0.24586 -0.4249901,-0.53672 -0.23374435,-0.29086 -0.43074632,-0.54373 -0.43778214,-0.56192 -0.0181129,-0.0469 -0.003685,-0.11729 0.0318327,-0.15545 0.0398304,-0.0428 0.2779349,-0.16216 0.32345641,-0.16216 0.0206509,0 0.29850123,0.13644 0.66223713,0.32521 l 0.6266574,0.32521 1.6108935,-0.83713 c 0.8859918,-0.46043 1.694266,-0.87734 1.7961656,-0.92649 0.2784182,-0.13428 0.3617247,-0.15887 0.5822836,-0.17194 0.1018996,-0.006 0.2207802,-0.017 0.2641813,-0.0244 0.4255077,-0.0722 0.7276977,0.0254 0.7449618,0.24075 0.00685,0.0855 -0.02277,0.15977 -0.1026782,0.25736 -0.1258814,0.15371 -0.2283274,0.21496 -1.2351863,0.73861 l -0.7633745,0.39701 -0.6547694,0.68365 -0.6547688,0.68366 -0.2316104,0.1206 c -0.2390615,0.12447 -0.2846183,0.14098 -0.3330002,0.1206 z"
       id="path826"
       inkscape:connector-curvature="0" />
  </g>
</svg>
